<svg width="25" height="24" viewBox="0 0 25 24" fill="none" xmlns="http://www.w3.org/2000/svg">
<g id="_Linkedin" clip-path="url(#clip0_0_3677)">
<path id="Vector" d="M0.5 3.20169C0.5 2.42947 0.770278 1.79241 1.31081 1.29049C1.85134 0.788555 2.55406 0.537598 3.41892 0.537598C4.26835 0.537598 4.95559 0.784686 5.4807 1.27891C6.02123 1.78856 6.29151 2.45264 6.29151 3.27119C6.29151 4.0125 6.02897 4.63025 5.50386 5.12447C4.96333 5.63412 4.2529 5.88895 3.37259 5.88895H3.34942C2.49999 5.88895 1.81275 5.63412 1.28764 5.12447C0.762541 4.61482 0.5 3.97388 0.5 3.20169ZM0.801158 23.472V7.99706H5.94402V23.472H0.801158ZM8.79344 23.472H13.9363V14.831C13.9363 14.2905 13.9981 13.8735 14.1216 13.5801C14.3378 13.055 14.666 12.6109 15.1062 12.248C15.5463 11.8851 16.0984 11.7036 16.7626 11.7036C18.4923 11.7036 19.3571 12.8696 19.3571 15.2017V23.472H24.5V14.5994C24.5 12.3137 23.9595 10.5801 22.8784 9.3986C21.7973 8.21713 20.3687 7.6264 18.5927 7.6264C16.6004 7.6264 15.0483 8.48354 13.9363 10.1978V10.2442H13.9131L13.9363 10.1978V7.99706H8.79344C8.82432 8.49126 8.83977 10.0279 8.83977 12.6071C8.83977 15.1862 8.82432 18.8079 8.79344 23.472Z" fill="#FFFEFE"/>
</g>
<defs>
<clipPath id="clip0_0_3677">
<rect width="24" height="24" fill="white" transform="translate(0.5)"/>
</clipPath>
</defs>
</svg>
