<svg width="25" height="20" viewBox="0 0 25 20" fill="none" xmlns="http://www.w3.org/2000/svg">
<path id="Vector" d="M20.9 0H4.1C3.14522 0 2.22955 0.379285 1.55442 1.05442C0.879285 1.72955 0.5 2.64522 0.5 3.6V15.6C0.5 16.5548 0.879285 17.4705 1.55442 18.1456C2.22955 18.8207 3.14522 19.2 4.1 19.2H20.9C21.8548 19.2 22.7705 18.8207 23.4456 18.1456C24.1207 17.4705 24.5 16.5548 24.5 15.6V3.6C24.5 2.64522 24.1207 1.72955 23.4456 1.05442C22.7705 0.379285 21.8548 0 20.9 0ZM20.096 2.4L12.5 8.1L4.904 2.4H20.096ZM20.9 16.8H4.1C3.78174 16.8 3.47652 16.6736 3.25147 16.4485C3.02643 16.2235 2.9 15.9183 2.9 15.6V3.9L11.78 10.56C11.9877 10.7158 12.2404 10.8 12.5 10.8C12.7596 10.8 13.0123 10.7158 13.22 10.56L22.1 3.9V15.6C22.1 15.9183 21.9736 16.2235 21.7485 16.4485C21.5235 16.6736 21.2183 16.8 20.9 16.8Z" fill="#FFFEFE"/>
</svg>
