<svg width="24" height="20" viewBox="0 0 24 20" fill="none" xmlns="http://www.w3.org/2000/svg">
<path id="Vector" d="M20.4 0H3.6C2.64522 0 1.72955 0.379285 1.05442 1.05442C0.379285 1.72955 0 2.64522 0 3.6V15.6C0 16.5548 0.379285 17.4705 1.05442 18.1456C1.72955 18.8207 2.64522 19.2 3.6 19.2H20.4C21.3548 19.2 22.2705 18.8207 22.9456 18.1456C23.6207 17.4705 24 16.5548 24 15.6V3.6C24 2.64522 23.6207 1.72955 22.9456 1.05442C22.2705 0.379285 21.3548 0 20.4 0ZM19.596 2.4L12 8.1L4.404 2.4H19.596ZM20.4 16.8H3.6C3.28174 16.8 2.97652 16.6736 2.75147 16.4485C2.52643 16.2235 2.4 15.9183 2.4 15.6V3.9L11.28 10.56C11.4877 10.7158 11.7404 10.8 12 10.8C12.2596 10.8 12.5123 10.7158 12.72 10.56L21.6 3.9V15.6C21.6 15.9183 21.4736 16.2235 21.2485 16.4485C21.0235 16.6736 20.7183 16.8 20.4 16.8Z" fill="#545454"/>
</svg>
